<svg xmlns="http://www.w3.org/2000/svg" xmlns:xlink="http://www.w3.org/1999/xlink" width="300" zoomAndPan="magnify" viewBox="0 0 224.87999 93.749996" height="125" preserveAspectRatio="xMidYMid meet" version="1.2"><defs><clipPath id="e19082f74e"><path d="M 9.589844 9.351562 L 64.941406 9.351562 L 64.941406 84.152344 L 9.589844 84.152344 Z M 9.589844 9.351562 "/></clipPath></defs><g id="2a60c0ef3f"><g clip-rule="nonzero" clip-path="url(#e19082f74e)"><path style=" stroke:none;fill-rule:evenodd;fill:#ffffff;fill-opacity:1;" d="M 60.554688 51.796875 L 39.386719 83.015625 C 38.882812 83.753906 38.113281 84.164062 37.222656 84.164062 C 36.328125 84.164062 35.558594 83.753906 35.054688 83.015625 L 13.886719 51.796875 C 11.167969 47.519531 9.589844 42.441406 9.589844 36.992188 C 9.589844 21.734375 21.960938 9.363281 37.222656 9.363281 C 52.480469 9.363281 64.851562 21.734375 64.851562 36.992188 C 64.851562 42.441406 63.277344 47.519531 60.554688 51.796875 Z M 24.015625 41.398438 L 33.722656 34.789062 L 46.570312 28.488281 C 48.128906 27.722656 49.96875 27.386719 52.488281 27.644531 C 52.9375 27.691406 53.296875 27.9375 53.496094 28.335938 C 53.691406 28.734375 53.671875 29.171875 53.4375 29.558594 C 52.125 31.722656 50.746094 32.988281 49.195312 33.769531 L 36.421875 40.214844 C 35.640625 40.605469 25.238281 43.976562 25.238281 43.976562 C 23.074219 44.769531 22.03125 42.75 24.015625 41.398438 Z M 44.238281 37.140625 L 43.789062 53.816406 C 43.726562 54.542969 42.304688 55.222656 42.050781 54.324219 L 37.691406 40.453125 Z M 29.023438 43.628906 L 28.210938 48.859375 L 26.882812 49.191406 L 25.824219 44.585938 Z M 40.890625 30.410156 L 27.320312 20.707031 C 26.703125 20.320312 25.304688 21.042969 25.863281 21.785156 L 34.296875 33.632812 Z M 26.535156 38.628906 L 21.875 36.121094 L 20.808594 36.976562 L 23.84375 40.605469 Z M 37.222656 15.667969 C 25.445312 15.667969 15.898438 25.214844 15.898438 36.992188 C 15.898438 48.769531 25.445312 58.316406 37.222656 58.316406 C 48.996094 58.316406 58.546875 48.769531 58.546875 36.992188 C 58.546875 25.214844 48.996094 15.667969 37.222656 15.667969 Z M 37.222656 15.667969 "/></g><g style="fill:#ffffff;fill-opacity:1;"><g transform="translate(73.795, 39.057073)"><path style="stroke:none" d="M 16.4375 0 L 12.875 0 L 11.578125 -3.953125 L 5.03125 -3.953125 L 3.734375 0 L 0.25 0 L 6.171875 -17.125 L 10.515625 -17.125 Z M 8.140625 -13.546875 L 5.9375 -6.796875 L 10.640625 -6.796875 L 8.4375 -13.546875 Z M 8.140625 -13.546875 "/></g></g><g style="fill:#ffffff;fill-opacity:1;"><g transform="translate(90.474207, 39.057073)"><path style="stroke:none" d="M 5.609375 0 L 2.21875 0 L 2.21875 -17.125 L 5.609375 -17.125 Z M 5.609375 0 "/></g></g><g style="fill:#ffffff;fill-opacity:1;"><g transform="translate(98.316358, 39.057073)"><path style="stroke:none" d="M 2.21875 0 L 2.21875 -17.125 L 9.09375 -17.125 C 10.875 -17.125 12.210938 -16.710938 13.109375 -15.890625 C 14.015625 -15.078125 14.46875 -13.953125 14.46875 -12.515625 C 14.46875 -11.484375 14.203125 -10.632812 13.671875 -9.96875 C 13.140625 -9.300781 12.351562 -8.789062 11.3125 -8.4375 L 11.3125 -8.203125 C 11.851562 -7.960938 12.285156 -7.613281 12.609375 -7.15625 C 12.941406 -6.695312 13.257812 -6.015625 13.5625 -5.109375 L 15.265625 0 L 11.796875 0 L 10.125 -5.125 C 9.945312 -5.632812 9.75 -6.03125 9.53125 -6.3125 C 9.320312 -6.601562 9.050781 -6.8125 8.71875 -6.9375 C 8.382812 -7.0625 7.953125 -7.125 7.421875 -7.125 L 5.609375 -7.125 L 5.609375 0 Z M 8.6875 -9.8125 C 10.332031 -9.8125 11.15625 -10.578125 11.15625 -12.109375 C 11.15625 -13.660156 10.332031 -14.4375 8.6875 -14.4375 L 5.609375 -14.4375 L 5.609375 -9.8125 Z M 8.6875 -9.8125 "/></g></g><g style="fill:#ffffff;fill-opacity:1;"><g transform="translate(114.316692, 39.057073)"><path style="stroke:none" d=""/></g></g><g style="fill:#ffffff;fill-opacity:1;"><g transform="translate(119.970069, 39.057073)"><path style="stroke:none" d="M 2.21875 0 L 2.21875 -17.125 L 9.09375 -17.125 C 10.875 -17.125 12.210938 -16.710938 13.109375 -15.890625 C 14.015625 -15.078125 14.46875 -13.953125 14.46875 -12.515625 C 14.46875 -11.484375 14.203125 -10.632812 13.671875 -9.96875 C 13.140625 -9.300781 12.351562 -8.789062 11.3125 -8.4375 L 11.3125 -8.203125 C 11.851562 -7.960938 12.285156 -7.613281 12.609375 -7.15625 C 12.941406 -6.695312 13.257812 -6.015625 13.5625 -5.109375 L 15.265625 0 L 11.796875 0 L 10.125 -5.125 C 9.945312 -5.632812 9.75 -6.03125 9.53125 -6.3125 C 9.320312 -6.601562 9.050781 -6.8125 8.71875 -6.9375 C 8.382812 -7.0625 7.953125 -7.125 7.421875 -7.125 L 5.609375 -7.125 L 5.609375 0 Z M 8.6875 -9.8125 C 10.332031 -9.8125 11.15625 -10.578125 11.15625 -12.109375 C 11.15625 -13.660156 10.332031 -14.4375 8.6875 -14.4375 L 5.609375 -14.4375 L 5.609375 -9.8125 Z M 8.6875 -9.8125 "/></g></g><g style="fill:#ffffff;fill-opacity:1;"><g transform="translate(135.970404, 39.057073)"><path style="stroke:none" d="M 9.328125 0.25 C 7.765625 0.25 6.382812 -0.0664062 5.1875 -0.703125 C 3.988281 -1.347656 3.046875 -2.328125 2.359375 -3.640625 C 1.679688 -4.960938 1.34375 -6.601562 1.34375 -8.5625 C 1.34375 -10.519531 1.679688 -12.15625 2.359375 -13.46875 C 3.046875 -14.789062 3.988281 -15.769531 5.1875 -16.40625 C 6.382812 -17.050781 7.765625 -17.375 9.328125 -17.375 C 10.898438 -17.375 12.28125 -17.050781 13.46875 -16.40625 C 14.664062 -15.769531 15.601562 -14.789062 16.28125 -13.46875 C 16.957031 -12.15625 17.296875 -10.519531 17.296875 -8.5625 C 17.296875 -6.601562 16.957031 -4.960938 16.28125 -3.640625 C 15.601562 -2.316406 14.664062 -1.335938 13.46875 -0.703125 C 12.28125 -0.0664062 10.898438 0.25 9.328125 0.25 Z M 9.328125 -2.6875 C 10.785156 -2.6875 11.894531 -3.15625 12.65625 -4.09375 C 13.425781 -5.03125 13.8125 -6.519531 13.8125 -8.5625 C 13.8125 -10.601562 13.425781 -12.09375 12.65625 -13.03125 C 11.894531 -13.96875 10.785156 -14.4375 9.328125 -14.4375 C 7.867188 -14.4375 6.753906 -13.96875 5.984375 -13.03125 C 5.222656 -12.09375 4.84375 -10.601562 4.84375 -8.5625 C 4.84375 -6.519531 5.222656 -5.03125 5.984375 -4.09375 C 6.753906 -3.15625 7.867188 -2.6875 9.328125 -2.6875 Z M 9.328125 -2.6875 "/></g></g><g style="fill:#ffffff;fill-opacity:1;"><g transform="translate(154.616001, 39.057073)"><path style="stroke:none" d="M 9.078125 0.25 C 6.722656 0.25 4.972656 -0.304688 3.828125 -1.421875 C 2.691406 -2.546875 2.125 -4.210938 2.125 -6.421875 L 2.125 -17.125 L 5.4375 -17.125 L 5.4375 -6.4375 C 5.4375 -5.1875 5.734375 -4.25 6.328125 -3.625 C 6.929688 -3 7.847656 -2.6875 9.078125 -2.6875 C 11.503906 -2.6875 12.71875 -3.9375 12.71875 -6.4375 L 12.71875 -17.125 L 16.03125 -17.125 L 16.03125 -6.421875 C 16.03125 -4.210938 15.457031 -2.546875 14.3125 -1.421875 C 13.175781 -0.304688 11.429688 0.25 9.078125 0.25 Z M 9.078125 0.25 "/></g></g><g style="fill:#ffffff;fill-opacity:1;"><g transform="translate(172.75829, 39.057073)"><path style="stroke:none" d="M 13.71875 -17.125 L 13.71875 -14.28125 L 8.78125 -14.28125 L 8.78125 0 L 5.40625 0 L 5.40625 -14.28125 L 0.46875 -14.28125 L 0.46875 -17.125 Z M 13.71875 -17.125 "/></g></g><g style="fill:#ffffff;fill-opacity:1;"><g transform="translate(186.944389, 39.057073)"><path style="stroke:none" d="M 5.609375 -7.515625 L 5.609375 -2.828125 L 13.78125 -2.828125 L 13.78125 0 L 2.21875 0 L 2.21875 -17.125 L 13.59375 -17.125 L 13.59375 -14.28125 L 5.609375 -14.28125 L 5.609375 -10.28125 L 12.59375 -10.28125 L 12.59375 -7.515625 Z M 5.609375 -7.515625 "/></g></g><g style="fill:#ffffff;fill-opacity:1;"><g transform="translate(201.657206, 39.057073)"><path style="stroke:none" d="M 7.59375 0.25 C 6.40625 0.25 5.347656 0.101562 4.421875 -0.1875 C 3.492188 -0.476562 2.722656 -0.863281 2.109375 -1.34375 C 1.492188 -1.820312 1.019531 -2.347656 0.6875 -2.921875 L 2.546875 -5.1875 L 2.84375 -5.1875 C 3.363281 -4.425781 4.019531 -3.816406 4.8125 -3.359375 C 5.601562 -2.910156 6.53125 -2.6875 7.59375 -2.6875 C 8.5 -2.6875 9.179688 -2.875 9.640625 -3.25 C 10.097656 -3.632812 10.328125 -4.164062 10.328125 -4.84375 C 10.328125 -5.25 10.253906 -5.585938 10.109375 -5.859375 C 9.960938 -6.128906 9.71875 -6.359375 9.375 -6.546875 C 9.03125 -6.742188 8.5625 -6.914062 7.96875 -7.0625 L 5.78125 -7.5625 C 4.238281 -7.914062 3.085938 -8.5 2.328125 -9.3125 C 1.578125 -10.132812 1.203125 -11.195312 1.203125 -12.5 C 1.203125 -13.46875 1.441406 -14.316406 1.921875 -15.046875 C 2.410156 -15.785156 3.117188 -16.359375 4.046875 -16.765625 C 4.972656 -17.171875 6.078125 -17.375 7.359375 -17.375 C 8.679688 -17.375 9.8125 -17.195312 10.75 -16.84375 C 11.695312 -16.5 12.492188 -15.96875 13.140625 -15.25 L 11.46875 -12.953125 L 11.171875 -12.953125 C 10.691406 -13.460938 10.140625 -13.84375 9.515625 -14.09375 C 8.890625 -14.34375 8.171875 -14.46875 7.359375 -14.46875 C 6.429688 -14.46875 5.722656 -14.300781 5.234375 -13.96875 C 4.753906 -13.644531 4.515625 -13.195312 4.515625 -12.625 C 4.515625 -12.082031 4.6875 -11.648438 5.03125 -11.328125 C 5.375 -11.015625 5.960938 -10.769531 6.796875 -10.59375 L 9.046875 -10.125 C 10.703125 -9.769531 11.90625 -9.171875 12.65625 -8.328125 C 13.40625 -7.492188 13.78125 -6.398438 13.78125 -5.046875 C 13.78125 -3.972656 13.550781 -3.039062 13.09375 -2.25 C 12.632812 -1.457031 11.9375 -0.84375 11 -0.40625 C 10.070312 0.03125 8.9375 0.25 7.59375 0.25 Z M 7.59375 0.25 "/></g></g><g style="fill:#ffffff;fill-opacity:1;"><g transform="translate(100.349187, 71.969305)"><path style="stroke:none" d="M 13.078125 -17.125 L 13.078125 -14.28125 L 5.609375 -14.28125 L 5.609375 -9.75 L 12.390625 -9.75 L 12.390625 -6.953125 L 5.609375 -6.953125 L 5.609375 0 L 2.21875 0 L 2.21875 -17.125 Z M 13.078125 -17.125 "/></g></g><g style="fill:#ffffff;fill-opacity:1;"><g transform="translate(114.184146, 71.969305)"><path style="stroke:none" d="M 5.609375 0 L 2.21875 0 L 2.21875 -17.125 L 5.609375 -17.125 Z M 5.609375 0 "/></g></g><g style="fill:#ffffff;fill-opacity:1;"><g transform="translate(122.026296, 71.969305)"><path style="stroke:none" d="M 5.5 0 L 2.21875 0 L 2.21875 -17.125 L 6.09375 -17.125 L 12.96875 -6.09375 L 13.28125 -6.140625 L 13.28125 -17.125 L 16.53125 -17.125 L 16.53125 0 L 13.0625 0 L 5.796875 -11.78125 L 5.5 -11.734375 Z M 5.5 0 "/></g></g><g style="fill:#ffffff;fill-opacity:1;"><g transform="translate(140.78894, 71.969305)"><path style="stroke:none" d="M 8.390625 -17.125 C 11.160156 -17.125 13.28125 -16.40625 14.75 -14.96875 C 16.21875 -13.53125 16.953125 -11.394531 16.953125 -8.5625 C 16.953125 -5.738281 16.21875 -3.601562 14.75 -2.15625 C 13.28125 -0.71875 11.160156 0 8.390625 0 L 2.21875 0 L 2.21875 -17.125 Z M 8.1875 -2.84375 C 9.945312 -2.84375 11.265625 -3.289062 12.140625 -4.1875 C 13.015625 -5.09375 13.453125 -6.550781 13.453125 -8.5625 C 13.453125 -10.570312 13.015625 -12.023438 12.140625 -12.921875 C 11.265625 -13.828125 9.945312 -14.28125 8.1875 -14.28125 L 5.609375 -14.28125 L 5.609375 -2.84375 Z M 8.1875 -2.84375 "/></g></g><g style="fill:#ffffff;fill-opacity:1;"><g transform="translate(159.083396, 71.969305)"><path style="stroke:none" d="M 5.609375 -7.515625 L 5.609375 -2.828125 L 13.78125 -2.828125 L 13.78125 0 L 2.21875 0 L 2.21875 -17.125 L 13.59375 -17.125 L 13.59375 -14.28125 L 5.609375 -14.28125 L 5.609375 -10.28125 L 12.59375 -10.28125 L 12.59375 -7.515625 Z M 5.609375 -7.515625 "/></g></g><g style="fill:#ffffff;fill-opacity:1;"><g transform="translate(173.796213, 71.969305)"><path style="stroke:none" d="M 2.21875 0 L 2.21875 -17.125 L 9.09375 -17.125 C 10.875 -17.125 12.210938 -16.710938 13.109375 -15.890625 C 14.015625 -15.078125 14.46875 -13.953125 14.46875 -12.515625 C 14.46875 -11.484375 14.203125 -10.632812 13.671875 -9.96875 C 13.140625 -9.300781 12.351562 -8.789062 11.3125 -8.4375 L 11.3125 -8.203125 C 11.851562 -7.960938 12.285156 -7.613281 12.609375 -7.15625 C 12.941406 -6.695312 13.257812 -6.015625 13.5625 -5.109375 L 15.265625 0 L 11.796875 0 L 10.125 -5.125 C 9.945312 -5.632812 9.75 -6.03125 9.53125 -6.3125 C 9.320312 -6.601562 9.050781 -6.8125 8.71875 -6.9375 C 8.382812 -7.0625 7.953125 -7.125 7.421875 -7.125 L 5.609375 -7.125 L 5.609375 0 Z M 8.6875 -9.8125 C 10.332031 -9.8125 11.15625 -10.578125 11.15625 -12.109375 C 11.15625 -13.660156 10.332031 -14.4375 8.6875 -14.4375 L 5.609375 -14.4375 L 5.609375 -9.8125 Z M 8.6875 -9.8125 "/></g></g></g></svg>